<svg xmlns="http://www.w3.org/2000/svg" viewBox="0 0 100 100">
  <rect width="100" height="100" rx="20" fill="#000"/>
  <path d="M67.5 28.5c-3.5-2.5-5.8-6.3-6.3-10.8h-10.4v43.5c0 5.2-4.2 9.5-9.5 9.5-1.9 0-3.6-.5-5.1-1.5-3-1.8-5-5.1-5-8.8 0-5.7 4.6-10.3 10.3-10.3 1 0 2 .1 3 .4V40c-1-.1-2-.2-3-.2-11.4 0-20.6 9.2-20.6 20.6 0 6.9 3.4 13 8.6 16.8 3.4 2.5 7.5 3.8 12 3.8 11.4 0 20.6-9.2 20.6-20.6V42.8c4.4 3.1 9.7 5 15.4 5v-10.3c-3.5 0-6.8-1.1-9.5-3.1l-.5-.4z" fill="#fff"/>
  <path d="M67.5 28.5c-3.5-2.5-5.8-6.3-6.3-10.8h-10.4v43.5c0 5.2-4.2 9.5-9.5 9.5-1.9 0-3.6-.5-5.1-1.5-3-1.8-5-5.1-5-8.8 0-5.7 4.6-10.3 10.3-10.3 1 0 2 .1 3 .4V40c-1-.1-2-.2-3-.2-11.4 0-20.6 9.2-20.6 20.6 0 6.9 3.4 13 8.6 16.8 3.4 2.5 7.5 3.8 12 3.8 11.4 0 20.6-9.2 20.6-20.6V42.8c4.4 3.1 9.7 5 15.4 5v-10.3c-3.5 0-6.8-1.1-9.5-3.1l-.5-.4z" fill="#25f4ee" opacity=".6" transform="translate(-2,-2)"/>
  <path d="M67.5 28.5c-3.5-2.5-5.8-6.3-6.3-10.8h-10.4v43.5c0 5.2-4.2 9.5-9.5 9.5-1.9 0-3.6-.5-5.1-1.5-3-1.8-5-5.1-5-8.8 0-5.7 4.6-10.3 10.3-10.3 1 0 2 .1 3 .4V40c-1-.1-2-.2-3-.2-11.4 0-20.6 9.2-20.6 20.6 0 6.9 3.4 13 8.6 16.8 3.4 2.5 7.5 3.8 12 3.8 11.4 0 20.6-9.2 20.6-20.6V42.8c4.4 3.1 9.7 5 15.4 5v-10.3c-3.5 0-6.8-1.1-9.5-3.1l-.5-.4z" fill="#fe2c55" opacity=".6" transform="translate(2,2)"/>
</svg>
